<svg xmlns="http://www.w3.org/2000/svg" version="1.1" xmlns:xlink="http://www.w3.org/1999/xlink" xmlns:svgjs="http://svgjs.dev/svgjs" viewBox="0 0 800 800" opacity="1"><defs><symbol id="bbburst-shape-1" viewBox="0 0 194 167"><path d="m97 0 96.129 166.5H.871L97 0Z"></path></symbol><symbol id="bbburst-shape-3" viewBox="0 0 131 127"><path d="m66 0 66 63.5L66 127 0 63.5 66 0Z"></path></symbol><symbol id="bbburst-shape-4" viewBox="0 0 149 143"><path d="M71.647 2.781c.898-2.764 4.808-2.764 5.706 0l15.445 47.534a3 3 0 0 0 2.853 2.073h49.98c2.906 0 4.115 3.719 1.764 5.427L106.96 87.193a2.999 2.999 0 0 0-1.09 3.354l15.445 47.534c.898 2.764-2.266 5.062-4.617 3.354l-40.435-29.378a3 3 0 0 0-3.526 0l-40.435 29.378c-2.351 1.708-5.515-.59-4.617-3.354L43.13 90.547a3 3 0 0 0-1.09-3.354L1.605 57.815c-2.35-1.708-1.142-5.427 1.764-5.427h49.98a3 3 0 0 0 2.853-2.073L71.647 2.781Z"></path></symbol><symbol id="bbburst-shape-8" viewBox="0 0 87 168"><path d="m12 12 31.2546 18.0749c16.4102 9.4902 20.014 31.6325 7.4603 45.8369L36.3296 92.1884c-12.5684 14.2206-8.9394 36.3916 7.5068 45.8636L75 156" stroke-width="14" stroke-linecap="round" stroke-linejoin="round"></path></symbol><symbol id="bbburst-shape-10" viewBox="0 0 145 145"><circle cx="72.5" cy="72.5" r="61.5" fill="none" stroke-width="22"></circle></symbol><symbol id="bbburst-shape-12" viewBox="0 0 170 151"><path d="M69.3728 54.2122 85 10.0031l15.627 44.2091c1.413 3.9958 5.19 6.6672 9.428 6.6673h49.312l-39.149 26.1447c-3.803 2.5401-5.399 7.3367-3.875 11.6488l15.179 42.94-40.9683-27.36c-3.3621-2.245-7.7453-2.245-11.1074 0l-40.9682 27.36 15.1785-42.94c1.5243-4.3121-.0712-9.1087-3.8746-11.6488L10.6333 60.8795h49.3112c4.2381-.0001 8.0159-2.6715 9.4283-6.6673Z" stroke-width="12"></path></symbol><symbol id="bbburst-shape-13" viewBox="0 0 159 159"><path stroke-width="22" d="M11 11h137v137H11z"></path></symbol></defs><use xlink:href="#bbburst-shape-3" width="20.90027196088601" opacity="0.47221096693550657" transform="matrix(0.8987720498250129,0.4384162433730581,-0.4384162433730581,0.8987720498250129,704.1302921033732,-157.26187381156558)" fill="#003153"></use><use xlink:href="#bbburst-shape-10" width="33.74945360029079" opacity="0.3246732558792057" transform="matrix(0.9349400896383567,-0.3548056211322214,0.3548056211322214,0.9349400896383567,134.74187688958432,316.23731123566336)" fill="none" stroke="#36454f"></use><use xlink:href="#bbburst-shape-1" width="22.126861428907063" opacity="0.5583915406889433" transform="matrix(0.7269348531655015,-0.6867064287257333,0.6867064287257333,0.7269348531655015,196.1192777839916,-65.57797323245359)" fill="#003153"></use><use xlink:href="#bbburst-shape-13" width="12.043589838812508" opacity="0.8208806060842793" transform="matrix(0.9968450147860004,-0.07937264324878322,0.07937264324878322,0.9968450147860004,349.6515989376038,81.35332573945345)" fill="none" stroke="#36454f"></use><use xlink:href="#bbburst-shape-8" width="19.450209078746674" opacity="0.5864595307269695" transform="matrix(0.9773748010698853,0.21151477072205185,-0.21151477072205185,0.9773748010698853,411.65240320602754,-167.94971010004252)" fill="none" stroke="#263067"></use><use xlink:href="#bbburst-shape-3" width="5.403271931068414" opacity="0.9459947247222191" transform="matrix(0.9929950240856192,-0.1181561769066708,0.1181561769066708,0.9929950240856192,365.132505316419,-15.919750451856089)" fill="#263067"></use><use xlink:href="#bbburst-shape-4" width="12.562580769671822" opacity="0.7836819487953651" transform="matrix(0.8017091564127081,-0.5977143368901435,0.5977143368901435,0.8017091564127081,96.90903048817412,160.5233393849519)" fill="#263067"></use><use xlink:href="#bbburst-shape-10" width="6.183879960335302" opacity="0.9483755068654259" transform="matrix(0.7290724232853012,-0.6844365577647783,0.6844365577647783,0.7290724232853012,123.96905520537024,87.25624558772967)" fill="none" stroke="#263067"></use><use xlink:href="#bbburst-shape-8" width="23.3224183377938" opacity="0.10624207656591678" transform="matrix(0.7626499707453402,-0.6468114270188272,0.6468114270188272,0.7626499707453402,503.25704698470213,258.0761959809789)" fill="none" stroke="#003153"></use><use xlink:href="#bbburst-shape-3" width="7.4858991049805805" opacity="0.9005361377797801" transform="matrix(0.9617088531398623,-0.274073132197249,0.274073132197249,0.9617088531398623,258.08719342485745,50.7325782995415)" fill="#263067"></use><use xlink:href="#bbburst-shape-12" width="12.235580073168224" opacity="0.752311352005392" transform="matrix(0.9964249506793283,-0.0844826471158307,0.0844826471158307,0.9964249506793283,471.5682682631028,1.515346235052732)" fill="none" stroke="#00356b"></use><use xlink:href="#bbburst-shape-4" width="44.88590068464421" opacity="-0.09203449702135247" transform="matrix(0.9704739293234563,0.24120603745240535,-0.24120603745240535,0.9704739293234563,122.4470814939985,349.0917595724945)" fill="#263067"></use><use xlink:href="#bbburst-shape-3" width="6.7353387071603965" opacity="0.8808079462550114" transform="matrix(0.8816453880383427,-0.4719125022191297,0.4719125022191297,0.8816453880383427,252.482060420092,79.27131255982681)" fill="#003153"></use><use xlink:href="#bbburst-shape-3" width="33.89382955707928" opacity="0.10664921663639637" transform="matrix(0.9861530769933795,0.16583759747563157,-0.16583759747563157,0.9861530769933795,707.293990161654,311.1709992520997)" fill="#00356b"></use><use xlink:href="#bbburst-shape-13" width="6.196145761708959" opacity="0.9767542931099297" transform="matrix(0.7304669928519948,-0.6829480012078254,0.6829480012078254,0.7304669928519948,116.65067248535865,116.77749229329686)" fill="none" stroke="#00356b"></use><use xlink:href="#bbburst-shape-10" width="8.497106892357703" opacity="0.862286740998174" transform="matrix(0.9991638191724612,0.0408859689465858,-0.0408859689465858,0.9991638191724612,455.15550435645264,-44.41986103021145)" fill="none" stroke="#003153"></use><use xlink:href="#bbburst-shape-3" width="32.373775084953934" opacity="0.005242395523329391" transform="matrix(0.9953775085625347,-0.09603965560038816,0.09603965560038816,0.9953775085625347,700.9469633363667,-268.48992756455925)" fill="#00356b"></use><use xlink:href="#bbburst-shape-12" width="30.07275746876843" opacity="0.2361142807530553" transform="matrix(0.9080144008518549,0.4189389547960978,-0.4189389547960978,0.9080144008518549,810.6853998856068,259.0225582544951)" fill="none" stroke="#00356b"></use><use xlink:href="#bbburst-shape-12" width="6.465003570430441" opacity="0.9290167774616811" transform="matrix(0.9972458528138357,-0.074166765101395,0.074166765101395,0.9972458528138357,376.51938560834327,31.854484009673683)" fill="none" stroke="#003153"></use><use xlink:href="#bbburst-shape-4" width="30.044765673983804" opacity="0.12242790179712348" transform="matrix(0.7316722279820592,-0.6816566223545177,0.6816566223545177,0.7316722279820592,-37.925468012248245,481.1108383767347)" fill="#263067"></use><use xlink:href="#bbburst-shape-3" width="35.17118217618213" opacity="0.058540396924117055" transform="matrix(0.9964539757105988,-0.08413961189916087,0.08413961189916087,0.9964539757105988,126.45286779212813,-357.7803036829501)" fill="#00356b"></use><use xlink:href="#bbburst-shape-8" width="34.75100725886162" opacity="-0.09872169949430365" transform="matrix(0.7913752632093622,0.6113306738421627,-0.6113306738421627,0.7913752632093622,969.5593352539199,-287.2911247227311)" fill="none" stroke="#003153"></use><use xlink:href="#bbburst-shape-13" width="37.80912219736764" opacity="0.02542841400801299" transform="matrix(0.9868647398347693,0.1615487086635267,-0.1615487086635267,0.9868647398347693,191.230493995278,359.1926104633882)" fill="none" stroke="#003153"></use><use xlink:href="#bbburst-shape-12" width="6.6453845680742" opacity="0.9129829965435095" transform="matrix(0.9345971881107139,-0.3557078801144934,0.3557078801144934,0.9345971881107139,263.9140814842078,-10.703771345448217)" fill="none" stroke="#003153"></use><use xlink:href="#bbburst-shape-8" width="15.754231317605086" opacity="0.7409802759933457" transform="matrix(0.9981420505223778,-0.060929852937480954,0.060929852937480954,0.9981420505223778,372.8926680019923,-115.22292855011705)" fill="none" stroke="#263067"></use><use xlink:href="#bbburst-shape-4" width="9.738409431644643" opacity="0.8311822085067164" transform="matrix(0.7173626995184281,0.6966999047937594,-0.6966999047937594,0.7173626995184281,713.1811838983813,43.88812130375737)" fill="#263067"></use><use xlink:href="#bbburst-shape-8" width="15.840691757245358" opacity="0.6385459098728474" transform="matrix(0.9906187155741037,0.13665489509824716,-0.13665489509824716,0.9906187155741037,590.9686324454522,-72.67191014965499)" fill="none" stroke="#263067"></use><use xlink:href="#bbburst-shape-3" width="10.369634918051622" opacity="0.8278279110486949" transform="matrix(0.9303783806945857,-0.36660069385657296,0.36660069385657296,0.9303783806945857,316.92386733973524,66.10673878804721)" fill="#36454f"></use><use xlink:href="#bbburst-shape-1" width="13.330303225481355" opacity="0.7210075784756657" transform="matrix(0.970345457866223,0.24172234567451573,-0.24172234567451573,0.970345457866223,422.3202090224084,115.87008605243994)" fill="#003153"></use><use xlink:href="#bbburst-shape-4" width="25.37123112282014" opacity="0.1786848240239366" transform="matrix(0.952218120984751,0.30541881092733963,-0.30541881092733963,0.952218120984751,879.6359676105413,20.479453369459748)" fill="#003153"></use><use xlink:href="#bbburst-shape-1" width="35.266742344955894" opacity="0.10832383757021813" transform="matrix(0.9767263060817882,-0.21448944731110897,0.21448944731110897,0.9767263060817882,655.9107125854055,-166.25638001626982)" fill="#263067"></use><use xlink:href="#bbburst-shape-1" width="32.334894168512804" opacity="0.21971992927578365" transform="matrix(0.9792098773826242,0.20284973758007674,-0.20284973758007674,0.9792098773826242,772.646153830392,174.8650997362111)" fill="#36454f"></use><use xlink:href="#bbburst-shape-10" width="12.850105431389164" opacity="0.7657556705331056" transform="matrix(0.97398083264203,0.2266303987684309,-0.2266303987684309,0.97398083264203,548.9500145916852,-74.37800053027502)" fill="none" stroke="#003153"></use><use xlink:href="#bbburst-shape-8" width="40.27022446574209" opacity="0.14183794213359002" transform="matrix(0.9427465390658073,-0.3335100644350065,0.3335100644350065,0.9427465390658073,-20.20715031685657,-248.59466535553133)" fill="none" stroke="#36454f"></use><use xlink:href="#bbburst-shape-8" width="22.431905123526676" opacity="0.06274600314725376" transform="matrix(0.9138328971996164,-0.4060904283478686,0.4060904283478686,0.9138328971996164,435.1138441587686,406.0426247598262)" fill="none" stroke="#00356b"></use><use xlink:href="#bbburst-shape-12" width="36.12951308892667" opacity="0.29745779718828713" transform="matrix(0.7962591549980671,-0.6049556662118012,0.6049556662118012,0.7962591549980671,-37.0025742653944,-167.11138503564774)" fill="none" stroke="#36454f"></use><use xlink:href="#bbburst-shape-12" width="8.337219175172285" opacity="0.8966253517517204" transform="matrix(0.7891055531187439,-0.6142576218795834,0.6142576218795834,0.7891055531187439,197.4871631864508,88.56628627318543)" fill="none" stroke="#003153"></use><use xlink:href="#bbburst-shape-10" width="22.628030552290546" opacity="0.5268563259413479" transform="matrix(0.7513676388169912,-0.6598838316996253,0.6598838316996253,0.7513676388169912,311.3125950868403,214.44701518791095)" fill="none" stroke="#003153"></use><use xlink:href="#bbburst-shape-8" width="36.13775706776637" opacity="0.23460087242629524" transform="matrix(0.8156657728548183,0.578523419571889,-0.578523419571889,0.8156657728548183,773.0446904762865,-243.60569526653762)" fill="none" stroke="#263067"></use><use xlink:href="#bbburst-shape-12" width="21.79748941427262" opacity="0.5548584171111439" transform="matrix(0.9819298844215795,0.18924508469131657,-0.18924508469131657,0.9819298844215795,504.8601225055988,201.43526809811004)" fill="none" stroke="#00356b"></use><use xlink:href="#bbburst-shape-4" width="16.041499857235166" opacity="0.7007604387664326" transform="matrix(0.9723009434995503,0.233732486552221,-0.233732486552221,0.9723009434995503,380.5411222147951,93.33941005816683)" fill="#36454f"></use><use xlink:href="#bbburst-shape-4" width="6.121860723731068" opacity="0.9048671573690423" transform="matrix(0.7482344434336894,0.6634344109702761,-0.6634344109702761,0.7482344434336894,655.8075309434228,56.49206983851337)" fill="#263067"></use><use xlink:href="#bbburst-shape-8" width="22.17700416493733" opacity="0.6306327851618825" transform="matrix(0.9973442229176757,-0.07283200541477351,0.07283200541477351,0.9973442229176757,252.48544795044143,128.7925090181809)" fill="none" stroke="#36454f"></use><use xlink:href="#bbburst-shape-3" width="9.593080426015332" opacity="0.8300586519576756" transform="matrix(0.948322441861797,0.31730828268622085,-0.31730828268622085,0.948322441861797,487.471859019768,87.19938436730797)" fill="#003153"></use><use xlink:href="#bbburst-shape-12" width="15.875343430488552" opacity="0.6896090239849502" transform="matrix(0.9971945093702754,-0.07485392763092408,0.07485392763092408,0.9971945093702754,466.1363469804366,-91.55562349582118)" fill="none" stroke="#36454f"></use><use xlink:href="#bbburst-shape-12" width="5.723675686264167" opacity="0.916192132099453" transform="matrix(0.9015310825782545,-0.4327143482082381,0.4327143482082381,0.9015310825782545,260.42665367184657,29.693061113076965)" fill="none" stroke="#36454f"></use><use xlink:href="#bbburst-shape-10" width="14.144241618681423" opacity="0.7493329424960924" transform="matrix(0.9882245490252494,0.15301059016892446,-0.15301059016892446,0.9882245490252494,455.8302037617745,116.41669122828216)" fill="none" stroke="#003153"></use><use xlink:href="#bbburst-shape-8" width="26.903830768425777" opacity="0.47510248071966743" transform="matrix(0.9999580046475576,-0.009164548067156606,0.009164548067156606,0.9999580046475576,266.42446600383073,-205.35864793775227)" fill="none" stroke="#003153"></use><use xlink:href="#bbburst-shape-1" width="22.64797765296293" opacity="0.5571788293372895" transform="matrix(0.9736466044592783,0.22806203021309301,-0.22806203021309301,0.9736466044592783,294.6761269508583,-64.75885887840968)" fill="#003153"></use><use xlink:href="#bbburst-shape-12" width="10.081086584145986" opacity="0.8323390396561652" transform="matrix(0.8167057544233955,0.5770543394618156,-0.5770543394618156,0.8167057544233955,556.4490062902339,97.8698716817475)" fill="none" stroke="#003153"></use><use xlink:href="#bbburst-shape-3" width="18.109983608628013" opacity="0.596831956726886" transform="matrix(0.839846513954449,0.542823942912027,-0.542823942912027,0.839846513954449,749.07400151909,174.97516699713964)" fill="#00356b"></use><use xlink:href="#bbburst-shape-10" width="37.424313504900184" opacity="0.14803368745011658" transform="matrix(0.9969688910294882,0.077801223122986,-0.077801223122986,0.9969688910294882,49.43278610176634,-123.49721346097743)" fill="none" stroke="#003153"></use><use xlink:href="#bbburst-shape-10" width="23.393226665328527" opacity="0.5494353648580461" transform="matrix(0.8647920274592856,-0.5021302114420703,0.5021302114420703,0.8647920274592856,32.18191709626194,-68.52325589457382)" fill="none" stroke="#263067"></use><use xlink:href="#bbburst-shape-4" width="7.501502437113214" opacity="0.8598935525847871" transform="matrix(0.980854096690078,-0.19474403971955426,0.19474403971955426,0.980854096690078,304.5763703048951,-53.11273573694325)" fill="#36454f"></use><use xlink:href="#bbburst-shape-3" width="42.98213329431198" opacity="0.04603975494039392" transform="matrix(0.8116438944785042,0.5841525387737067,-0.5841525387737067,0.8116438944785042,257.9276644078236,-173.96459599681103)" fill="#36454f"></use><use xlink:href="#bbburst-shape-4" width="31.262385694134736" opacity="0.3631190470504665" transform="matrix(0.9777453093591338,0.20979540039336353,-0.20979540039336353,0.9777453093591338,389.86880113438883,-269.9116570326686)" fill="#00356b"></use><use xlink:href="#bbburst-shape-12" width="26.56266239008254" opacity="0.15895781576109302" transform="matrix(0.9965519983278943,-0.08297056483283959,0.08297056483283959,0.9965519983278943,-9.74982143667944,108.43262877745815)" fill="none" stroke="#263067"></use><use xlink:href="#bbburst-shape-4" width="25.049667219543885" opacity="0.4703900302543459" transform="matrix(0.9704869674467435,0.24115357350871555,-0.24115357350871555,0.9704869674467435,414.82845732118335,236.78090609596165)" fill="#003153"></use><use xlink:href="#bbburst-shape-4" width="5.921869792661989" opacity="0.9708407866112787" transform="matrix(0.9575228390510546,0.28835743911959016,-0.28835743911959016,0.9575228390510546,519.2784227841147,27.381206896882702)" fill="#263067"></use><use xlink:href="#bbburst-shape-4" width="25.690198185950322" opacity="0.550042552704021" transform="matrix(0.9057759452181464,0.4237569315824503,-0.4237569315824503,0.9057759452181464,716.8697698175981,-93.08707692732378)" fill="#263067"></use><use xlink:href="#bbburst-shape-10" width="6.563549583948637" opacity="0.9176936048637905" transform="matrix(0.9977106767015417,0.06762695908993513,-0.06762695908993513,0.9977106767015417,418.1923768149228,37.30829435169608)" fill="none" stroke="#263067"></use><use xlink:href="#bbburst-shape-4" width="24.194996188469485" opacity="0.49562558202027085" transform="matrix(0.9300449605413498,0.3674457393570364,-0.3674457393570364,0.9300449605413498,752.1957180608357,91.76658982839604)" fill="#003153"></use><use xlink:href="#bbburst-shape-1" width="9.375424599644486" opacity="0.8108479389775396" transform="matrix(0.9832725600014094,0.182140255704978,-0.182140255704978,0.9832725600014094,533.8207404188906,-48.41805247751563)" fill="#003153"></use><use xlink:href="#bbburst-shape-8" width="35.089445013045555" opacity="0.1596380510713986" transform="matrix(0.853971508116345,0.5203197702619949,-0.5203197702619949,0.853971508116345,318.5449891551814,309.2861326814202)" fill="none" stroke="#003153"></use><use xlink:href="#bbburst-shape-12" width="31.43587146448947" opacity="0.34227773762885405" transform="matrix(0.9532485784724276,-0.3021872724657608,0.3021872724657608,0.9532485784724276,35.783349597775555,211.7080673115202)" fill="none" stroke="#263067"></use><use xlink:href="#bbburst-shape-12" width="21.315313939161594" opacity="0.5677922943727662" transform="matrix(0.918874692783052,-0.3945494886105566,0.3945494886105566,0.918874692783052,426.54424456495667,47.79150185872237)" fill="none" stroke="#36454f"></use><use xlink:href="#bbburst-shape-3" width="15.998565945394368" opacity="0.6164468011090877" transform="matrix(0.9743679606819989,-0.22496016802181334,0.22496016802181334,0.9743679606819989,131.05098952424288,-10.547126467647502)" fill="#263067"></use><use xlink:href="#bbburst-shape-8" width="21.89281574209071" opacity="0.43503256335468965" transform="matrix(0.9034213021103578,-0.42875395146077167,0.42875395146077167,0.9034213021103578,407.4462495981039,213.54871279605305)" fill="none" stroke="#00356b"></use><use xlink:href="#bbburst-shape-8" width="18.462956183564426" opacity="0.5345684643035424" transform="matrix(0.7571729741282746,-0.6532144267005615,0.6532144267005615,0.7571729741282746,-70.69122361587256,156.96420933971797)" fill="none" stroke="#36454f"></use><use xlink:href="#bbburst-shape-1" width="32.507897760047264" opacity="0.25414881538931144" transform="matrix(0.9598515029276397,-0.28050863146711086,0.28050863146711086,0.9598515029276397,420.02479530110696,321.9883771611963)" fill="#263067"></use><use xlink:href="#bbburst-shape-1" width="16.148741861157518" opacity="0.6907787993507896" transform="matrix(0.9862004458495667,0.16555567222573792,-0.16555567222573792,0.9862004458495667,523.2729186498117,127.22952980593146)" fill="#00356b"></use><use xlink:href="#bbburst-shape-8" width="29.617859445567852" opacity="0.31427411946282535" transform="matrix(0.8102847972035315,0.5860363021356543,-0.5860363021356543,0.8102847972035315,930.3663710260691,47.572508276686676)" fill="none" stroke="#263067"></use><use xlink:href="#bbburst-shape-4" width="24.422058686511612" opacity="0.3390064636818" transform="matrix(0.9333864875368671,0.3588727697716697,-0.3588727697716697,0.9333864875368671,709.500702136574,261.0707880127794)" fill="#00356b"></use><use xlink:href="#bbburst-shape-10" width="11.278795919068925" opacity="0.6935881822033133" transform="matrix(0.9952630794594004,0.09721832473865889,-0.09721832473865889,0.9952630794594004,554.8903989910257,66.32319415922717)" fill="none" stroke="#003153"></use><use xlink:href="#bbburst-shape-8" width="8.442743456039622" opacity="0.9131485272786813" transform="matrix(0.9693507696240095,-0.2456808609341406,0.2456808609341406,0.9693507696240095,326.7729108268157,-12.751511547637733)" fill="none" stroke="#003153"></use><use xlink:href="#bbburst-shape-4" width="13.28582522766147" opacity="0.6864293189595346" transform="matrix(0.9977438727844143,0.0671354177849403,-0.0671354177849403,0.9977438727844143,491.8977668890461,-121.08068972486734)" fill="#263067"></use><use xlink:href="#bbburst-shape-12" width="20.315156989019094" opacity="0.48199351031892534" transform="matrix(0.7479060532328027,-0.6638045913804244,0.6638045913804244,0.7479060532328027,338.77755050734686,10.462242802419837)" fill="none" stroke="#263067"></use><use xlink:href="#bbburst-shape-4" width="7.516183238623766" opacity="0.8369456426283435" transform="matrix(0.9899118193977823,-0.14168482563977136,0.14168482563977136,0.9899118193977823,390.55711516531727,57.374884904566954)" fill="#00356b"></use><use xlink:href="#bbburst-shape-10" width="11.894294882567486" opacity="0.754639802273192" transform="matrix(0.9985860671153178,0.05315888037912417,-0.05315888037912417,0.9985860671153178,384.89409990709186,106.38519712074111)" fill="none" stroke="#003153"></use><use xlink:href="#bbburst-shape-4" width="10.534395299966388" opacity="0.8122803894528339" transform="matrix(0.8582286895237138,0.5132674901826618,-0.5132674901826618,0.8582286895237138,683.9585278518186,68.75869579353213)" fill="#003153"></use><use xlink:href="#bbburst-shape-1" width="31.374051917719214" opacity="0.3193821066149045" transform="matrix(0.9879720514972535,-0.15463254980859661,0.15463254980859661,0.9879720514972535,376.90404541987635,308.71220974149105)" fill="#003153"></use><use xlink:href="#bbburst-shape-1" width="23.50010805084772" opacity="0.47287236194803983" transform="matrix(0.9147972488790034,-0.4039133489294539,0.4039133489294539,0.9147972488790034,197.06097343567757,-196.36581386499728)" fill="#003153"></use><use xlink:href="#bbburst-shape-4" width="23.74356078599725" opacity="0.5015262350389582" transform="matrix(0.9471512234246611,0.3207874061822997,-0.3207874061822997,0.9471512234246611,555.0638134801716,-203.71943589548266)" fill="#00356b"></use><use xlink:href="#bbburst-shape-8" width="8.589218002591261" opacity="0.8823682183341215" transform="matrix(0.862419976025873,0.5061934264207041,-0.5061934264207041,0.862419976025873,568.4388002600285,9.477932967455843)" fill="none" stroke="#263067"></use><use xlink:href="#bbburst-shape-10" width="28.155458668554076" opacity="0.3257878814791235" transform="matrix(0.7700368262525559,0.6379994406070362,-0.6379994406070362,0.7700368262525559,836.2313482355066,-152.01537500609876)" fill="none" stroke="#003153"></use><use xlink:href="#bbburst-shape-3" width="7.91207748171055" opacity="0.8592007010991006" transform="matrix(0.94961580043439,0.3134163868807003,-0.3134163868807003,0.94961580043439,534.0553687260544,-43.21526482347133)" fill="#36454f"></use><use xlink:href="#bbburst-shape-12" width="10.396662023607954" opacity="0.8853196187034915" transform="matrix(0.9312436286440227,0.3643971790641547,-0.3643971790641547,0.9312436286440227,494.1093208491875,47.304964883085916)" fill="none" stroke="#003153"></use><use xlink:href="#bbburst-shape-13" width="32.80025804806522" opacity="0.4271750952504969" transform="matrix(0.9700572838482364,-0.24287623608122327,0.24287623608122327,0.9700572838482364,378.99034223167115,256.73572201590684)" fill="none" stroke="#003153"></use><use xlink:href="#bbburst-shape-8" width="6.294298294920648" opacity="0.9395876056293375" transform="matrix(0.758514132425655,0.6516565897085335,-0.6516565897085335,0.758514132425655,679.3309249074284,111.7401072056121)" fill="none" stroke="#003153"></use><use xlink:href="#bbburst-shape-8" width="31.259770547321608" opacity="0.3561887163331282" transform="matrix(0.9658758213444393,-0.25900559403650897,0.25900559403650897,0.9658758213444393,300.6450986393019,-271.370671334566)" fill="none" stroke="#003153"></use><use xlink:href="#bbburst-shape-10" width="12.005312637417862" opacity="0.7662863176715513" transform="matrix(0.9845841307806231,-0.17491166174662243,0.17491166174662243,0.9845841307806231,425.2821321443439,-21.563080526973465)" fill="none" stroke="#263067"></use><use xlink:href="#bbburst-shape-12" width="25.649960707919934" opacity="0.5019887345362517" transform="matrix(0.908779080442166,-0.4172775850086978,0.4172775850086978,0.908779080442166,352.42456440869256,223.6202597476177)" fill="none" stroke="#36454f"></use><use xlink:href="#bbburst-shape-8" width="11.201007612294507" opacity="0.7461205913646343" transform="matrix(0.835894941283879,0.5488894671388954,-0.5488894671388954,0.835894941283879,713.1526300141815,4.314480368327622)" fill="none" stroke="#263067"></use><use xlink:href="#bbburst-shape-8" width="13.202102476353893" opacity="0.7578547552067518" transform="matrix(0.7879277473999905,0.6157677036652514,-0.6157677036652514,0.7879277473999905,674.1209099078881,184.60763172255878)" fill="none" stroke="#263067"></use><use xlink:href="#bbburst-shape-8" width="13.37866575258822" opacity="0.6673067888647417" transform="matrix(0.9882477686614711,0.1528605499650693,-0.1528605499650693,0.9882477686614711,400.04397278548333,143.12210540407057)" fill="none" stroke="#263067"></use><use xlink:href="#bbburst-shape-13" width="17.37604102657946" opacity="0.7053995345775211" transform="matrix(0.9676977551992162,-0.2521131781212512,0.2521131781212512,0.9676977551992162,229.1288838641205,-102.26856418664704)" fill="none" stroke="#263067"></use><use xlink:href="#bbburst-shape-13" width="12.989243432007182" opacity="0.7085737374132257" transform="matrix(0.8925923640913234,0.45086458229257986,-0.45086458229257986,0.8925923640913234,702.8646696359116,67.1128061190746)" fill="none" stroke="#36454f"></use><use xlink:href="#bbburst-shape-12" width="19.284418035490802" opacity="0.6209183902805943" transform="matrix(0.8278221869432738,-0.560990576395411,0.560990576395411,0.8278221869432738,328.98487882441316,129.52740356460566)" fill="none" stroke="#263067"></use><use xlink:href="#bbburst-shape-8" width="19.300933979499703" opacity="0.6525804683493515" transform="matrix(0.80355400575815,-0.5952318538435516,0.5952318538435516,0.80355400575815,-0.9650420204802117,103.82480164327802)" fill="none" stroke="#263067"></use><use xlink:href="#bbburst-shape-8" width="10.71285779857141" opacity="0.8242408488598247" transform="matrix(0.995176739077534,0.09809820589086102,-0.09809820589086102,0.995176739077534,396.28723594240574,-68.16706668742984)" fill="none" stroke="#263067"></use><use xlink:href="#bbburst-shape-8" width="24.695317176383426" opacity="0.42850160672556137" transform="matrix(0.9217596239796845,-0.38776177686929225,0.38776177686929225,0.9217596239796845,-0.9496968517074436,141.7510871602817)" fill="none" stroke="#003153"></use><use xlink:href="#bbburst-shape-1" width="15.134004692148956" opacity="0.5498750524301629" transform="matrix(0.8448959019569867,0.5349307570670151,-0.5349307570670151,0.8448959019569867,597.3079188031913,260.30647447288106)" fill="#263067"></use><use xlink:href="#bbburst-shape-4" width="18.372910765700254" opacity="0.5867420756729653" transform="matrix(0.9992457147561751,-0.03883299552469356,0.03883299552469356,0.9992457147561751,360.8049047333462,-184.7261240935354)" fill="#263067"></use><use xlink:href="#bbburst-shape-4" width="36.52135194350935" opacity="0.25746727035060957" transform="matrix(0.832462944047912,-0.5540807222662443,0.5540807222662443,0.832462944047912,-135.4639860897973,227.02139559318596)" fill="#00356b"></use><use xlink:href="#bbburst-shape-3" width="11.717212363379694" opacity="0.8153423262053859" transform="matrix(0.9997355693869869,-0.02299546264977061,0.02299546264977061,0.9997355693869869,424.2761658219361,73.41569242803257)" fill="#263067"></use><use xlink:href="#bbburst-shape-4" width="39.061205105434425" opacity="0.18309633121918267" transform="matrix(0.8145319067065583,-0.5801187576324167,0.5801187576324167,0.8145319067065583,81.5015541293649,446.31691102904637)" fill="#263067"></use><use xlink:href="#bbburst-shape-8" width="5.796765046484116" opacity="0.8682381536517763" transform="matrix(0.9607083732290146,0.27755976222727324,-0.27755976222727324,0.9607083732290146,565.5514944409508,-0.28533580331981057)" fill="none" stroke="#36454f"></use><use xlink:href="#bbburst-shape-3" width="15.685392073040058" opacity="0.6871181603399689" transform="matrix(0.751243281365354,-0.6600254026955444,0.6600254026955444,0.751243281365354,104.98790617009735,-33.82918276647672)" fill="#263067"></use><use xlink:href="#bbburst-shape-1" width="5.499285172247523" opacity="0.9822728672416814" transform="matrix(0.7564489035266614,0.6540527932463187,-0.6540527932463187,0.7564489035266614,665.2776877474953,90.08891286572168)" fill="#00356b"></use><use xlink:href="#bbburst-shape-8" width="7.331856930315126" opacity="0.9292927771923313" transform="matrix(0.9995106810594421,-0.03127936137599774,0.03127936137599774,0.9995106810594421,354.79811374014673,13.34466019199698)" fill="none" stroke="#263067"></use><use xlink:href="#bbburst-shape-10" width="10.76807739744515" opacity="0.8420665450018482" transform="matrix(0.9116735844880575,0.41091516806598516,-0.41091516806598516,0.9116735844880575,493.033843840773,7.8428728691129095)" fill="none" stroke="#00356b"></use><use xlink:href="#bbburst-shape-10" width="13.871377178358545" opacity="0.7823200048412184" transform="matrix(0.9984968753075841,-0.054808667206845345,0.054808667206845345,0.9984968753075841,402.6205002735163,-91.78209950649062)" fill="none" stroke="#263067"></use><use xlink:href="#bbburst-shape-13" width="29.225004021868852" opacity="0.16180160726625092" transform="matrix(0.7347167181296154,-0.6783740443891167,0.6783740443891167,0.7347167181296154,32.00958163233486,-251.25057782326746)" fill="none" stroke="#003153"></use><use xlink:href="#bbburst-shape-1" width="32.204361110966545" opacity="0.207473436764107" transform="matrix(0.8841561586666613,0.46719148867655286,-0.46719148867655286,0.8841561586666613,432.303499976222,-289.02218002346143)" fill="#003153"></use><use xlink:href="#bbburst-shape-12" width="10.784788606056292" opacity="0.769455764730615" transform="matrix(0.7933121043562698,-0.6088151649571706,0.6088151649571706,0.7933121043562698,249.4417641715125,122.05310089615114)" fill="none" stroke="#00356b"></use><use xlink:href="#bbburst-shape-12" width="17.61409857500036" opacity="0.6597571981038949" transform="matrix(0.9982643990984429,-0.05889133631209943,0.05889133631209943,0.9982643990984429,234.16992621305565,-73.82274992406451)" fill="none" stroke="#263067"></use><use xlink:href="#bbburst-shape-4" width="5.895404373152082" opacity="0.9177660031860969" transform="matrix(0.9794627628955772,0.20162513757208506,-0.20162513757208506,0.9794627628955772,512.6934641567087,19.83937610747472)" fill="#263067"></use><use xlink:href="#bbburst-shape-3" width="15.367524178873623" opacity="0.7638502741153439" transform="matrix(0.9927094100522601,0.12053226619330505,-0.12053226619330505,0.9927094100522601,349.546020037675,-52.92804759218501)" fill="#263067"></use><use xlink:href="#bbburst-shape-12" width="27.35347434919199" opacity="0.17360319319187045" transform="matrix(0.7071592820142575,0.707054276460499,-0.707054276460499,0.7071592820142575,763.1108210672285,-253.4111067439934)" fill="none" stroke="#263067"></use><use xlink:href="#bbburst-shape-12" width="26.118465756658516" opacity="0.16896249699463117" transform="matrix(0.9572116753442856,0.28938868081627855,-0.28938868081627855,0.9572116753442856,867.0093967366516,-73.56487331428917)" fill="none" stroke="#263067"></use><use xlink:href="#bbburst-shape-4" width="12.072018854414088" opacity="0.70512160318758" transform="matrix(0.9397380370120847,-0.3418953374830866,0.3418953374830866,0.9397380370120847,129.87204764729793,-9.882544742309676)" fill="#263067"></use><use xlink:href="#bbburst-shape-8" width="43.89657617950844" opacity="0.19409326516098524" transform="matrix(0.9593198921249706,0.2823213498362013,-0.2823213498362013,0.9593198921249706,129.23264322248343,6.505294686995569)" fill="none" stroke="#36454f"></use><use xlink:href="#bbburst-shape-3" width="8.017222421489084" opacity="0.9170352640823207" transform="matrix(0.7306917253408762,-0.6827075527034789,0.6827075527034789,0.7306917253408762,86.88926054571402,106.10081284743933)" fill="#003153"></use><use xlink:href="#bbburst-shape-1" width="12.878498558633753" opacity="0.815120912115589" transform="matrix(0.9511476896051172,-0.308736250801307,0.308736250801307,0.9511476896051172,269.9680533264213,-61.649809885595914)" fill="#263067"></use><use xlink:href="#bbburst-shape-8" width="30.075664686656914" opacity="0.34114625128834786" transform="matrix(0.997168995512921,0.07519304746951111,-0.07519304746951111,0.997168995512921,384.2317809253396,294.87644821710103)" fill="none" stroke="#263067"></use><use xlink:href="#bbburst-shape-4" width="14.161036126371062" opacity="0.5962107214779822" transform="matrix(0.9933586868339018,-0.1150587645145997,0.1150587645145997,0.9933586868339018,302.45302829288687,179.65797429484775)" fill="#00356b"></use><use xlink:href="#bbburst-shape-8" width="12.298685294526633" opacity="0.8192780088554837" transform="matrix(0.971431437423742,-0.2373203792025503,0.2373203792025503,0.971431437423742,311.8596793489076,93.20417878067798)" fill="none" stroke="#003153"></use><use xlink:href="#bbburst-shape-8" width="6.928525335282742" opacity="0.8721563205113727" transform="matrix(0.9858351021951695,-0.16771747458103411,0.16771747458103411,0.9858351021951695,378.99202837385656,-23.078511023298574)" fill="none" stroke="#263067"></use><use xlink:href="#bbburst-shape-12" width="23.5965899989433" opacity="0.5038291737952649" transform="matrix(0.8081187963964166,-0.5890195335562369,0.5890195335562369,0.8081187963964166,-68.40673619954225,87.76408860331321)" fill="none" stroke="#003153"></use><use xlink:href="#bbburst-shape-12" width="11.940267742010924" opacity="0.6970276482163293" transform="matrix(0.867135214923888,0.49807280495817324,-0.49807280495817324,0.867135214923888,635.1178681670116,-79.8557474935343)" fill="none" stroke="#003153"></use><use xlink:href="#bbburst-shape-12" width="8.448650880980175" opacity="0.878704595433391" transform="matrix(0.7677365893239292,0.6407655807026938,-0.6407655807026938,0.7677365893239292,598.5009933901265,91.28561761563759)" fill="none" stroke="#36454f"></use><use xlink:href="#bbburst-shape-10" width="29.268739302488026" opacity="0.1883132553567174" transform="matrix(0.8957184959085849,-0.4446216100093004,0.4446216100093004,0.8957184959085849,221.17646610194794,413.27680276452486)" fill="none" stroke="#003153"></use><use xlink:href="#bbburst-shape-1" width="26.447626526997958" opacity="0.37421345997231714" transform="matrix(0.9077024804507304,0.4196143550733117,-0.4196143550733117,0.9077024804507304,799.7354304868907,172.14914321398334)" fill="#263067"></use><use xlink:href="#bbburst-shape-8" width="11.825351937765376" opacity="0.7877453871883652" transform="matrix(0.9852684196379866,0.1710150322751315,-0.1710150322751315,0.9852684196379866,385.1243877866792,60.770628384577094)" fill="none" stroke="#263067"></use><use xlink:href="#bbburst-shape-8" width="13.349409292831856" opacity="0.6999944150181442" transform="matrix(0.9949503085906667,-0.10036873734055403,0.10036873734055403,0.9949503085906667,452.6402589345848,94.01123193449683)" fill="none" stroke="#003153"></use><use xlink:href="#bbburst-shape-4" width="12.32425857400494" opacity="0.7880656305534961" transform="matrix(0.709441769673135,-0.7047640565771288,0.7047640565771288,0.709441769673135,21.25034220793009,97.27313471436452)" fill="#003153"></use><use xlink:href="#bbburst-shape-10" width="7.576034132090147" opacity="0.933037564142286" transform="matrix(0.7482355421110767,-0.6634331718581331,0.6634331718581331,0.7482355421110767,116.34610636072034,77.34581516027464)" fill="none" stroke="#003153"></use><use xlink:href="#bbburst-shape-8" width="13.332948581176744" opacity="0.6539663704639609" transform="matrix(0.8336046865955801,0.5523614998222494,-0.5523614998222494,0.8336046865955801,471.5425080113846,122.50674309708216)" fill="none" stroke="#003153"></use><use xlink:href="#bbburst-shape-8" width="41.1547208584773" opacity="0.057296511352481816" transform="matrix(0.99146948524889,-0.1303390187944544,0.1303390187944544,0.99146948524889,-31.481416162973183,232.18914713910203)" fill="none" stroke="#003153"></use><use xlink:href="#bbburst-shape-8" width="33.71352489067684" opacity="0.20567094757665316" transform="matrix(0.8637122585678831,0.5039852521647497,-0.5039852521647497,0.8637122585678831,936.000977807679,123.42546038633316)" fill="none" stroke="#263067"></use><use xlink:href="#bbburst-shape-13" width="23.793210165555976" opacity="0.4008489285052297" transform="matrix(0.9858809175341764,0.16744795144154617,-0.16744795144154617,0.9858809175341764,261.74545515855436,-184.09328865589885)" fill="none" stroke="#003153"></use><use xlink:href="#bbburst-shape-13" width="22.95407160254874" opacity="0.44690989968096007" transform="matrix(0.814254389722851,0.5805082159772309,-0.5805082159772309,0.814254389722851,871.4440395587505,79.94460965493636)" fill="none" stroke="#00356b"></use><use xlink:href="#bbburst-shape-10" width="17.578327550428448" opacity="0.6922979362505327" transform="matrix(0.765752062486291,-0.6431358945028581,0.6431358945028581,0.765752062486291,270.1533046298428,65.0033160460697)" fill="none" stroke="#263067"></use><use xlink:href="#bbburst-shape-8" width="34.83669156103503" opacity="-0.09882163665965038" transform="matrix(0.9983946746524044,0.05663985898393075,-0.05663985898393075,0.9983946746524044,747.6683567773042,356.39165198303317)" fill="none" stroke="#003153"></use><use xlink:href="#bbburst-shape-1" width="8.44954578082939" opacity="0.8550875013486405" transform="matrix(0.8533156178518374,-0.5213947221924451,0.5213947221924451,0.8533156178518374,253.05285240527655,61.13849953651942)" fill="#263067"></use><use xlink:href="#bbburst-shape-8" width="7.542538844186062" opacity="0.9709686732120051" transform="matrix(0.9583024098691764,-0.28575599948020175,0.28575599948020175,0.9583024098691764,273.5396321556674,7.873808127308564)" fill="none" stroke="#003153"></use><use xlink:href="#bbburst-shape-4" width="25.302590617149928" opacity="0.30305770657001874" transform="matrix(0.7697208957145634,-0.6383805625959882,0.6383805625959882,0.7697208957145634,-170.36893007907787,28.40048725806946)" fill="#36454f"></use><use xlink:href="#bbburst-shape-12" width="27.023532563323624" opacity="0.3878553907505021" transform="matrix(0.8533785482908681,-0.5212917161407522,0.5212917161407522,0.8533785482908681,20.18525725210219,290.0685993474683)" fill="none" stroke="#263067"></use><use xlink:href="#bbburst-shape-10" width="7.769173517353132" opacity="0.8208160360789198" transform="matrix(0.9919067674060443,-0.12696836131135805,0.12696836131135805,0.9919067674060443,419.4342621309959,-28.1219108110775)" fill="none" stroke="#36454f"></use><use xlink:href="#bbburst-shape-4" width="6.633227099602648" opacity="0.9452310744641651" transform="matrix(0.9864388196348322,0.16412938529537913,-0.16412938529537913,0.9864388196348322,450.2769708025123,26.356138406581408)" fill="#00356b"></use><use xlink:href="#bbburst-shape-8" width="26.318559244181504" opacity="0.4424175919847585" transform="matrix(0.7721348396492417,0.6354587236003924,-0.6354587236003924,0.7721348396492417,397.60189278743235,35.522450913789896)" fill="none" stroke="#263067"></use><use xlink:href="#bbburst-shape-8" width="13.074847674367707" opacity="0.7391436663019029" transform="matrix(0.9746697534854663,0.22364899204016186,-0.22364899204016186,0.9746697534854663,374.22928146116,52.59205196454809)" fill="none" stroke="#00356b"></use><use xlink:href="#bbburst-shape-3" width="9.840295213561618" opacity="0.8771599881878701" transform="matrix(0.9991037434234517,-0.042328594085391,0.042328594085391,0.9991037434234517,359.73234193982194,52.70015784818003)" fill="#003153"></use><use xlink:href="#bbburst-shape-12" width="17.811995138714934" opacity="0.604084992308487" transform="matrix(0.8395123283653032,-0.5433406394911643,0.5433406394911643,0.8395123283653032,69.6479861570547,-74.54378396285279)" fill="none" stroke="#00356b"></use><use xlink:href="#bbburst-shape-8" width="12.52748773518324" opacity="0.835967264085832" transform="matrix(0.9985908148929793,-0.05306961853429379,0.05306961853429379,0.9985908148929793,316.4206704741865,-47.08089128802396)" fill="none" stroke="#003153"></use><use xlink:href="#bbburst-shape-8" width="8.391240348977673" opacity="0.8759890424365304" transform="matrix(0.9974372815858052,0.07154627385628874,-0.07154627385628874,0.9974372815858052,427.3295248279852,56.454648672497285)" fill="none" stroke="#00356b"></use><use xlink:href="#bbburst-shape-10" width="48.45613137202087" opacity="-0.08950569143396603" transform="matrix(0.9359350105257856,0.3521727645234616,-0.3521727645234616,0.9359350105257856,174.12274355307494,-332.1736835954613)" fill="none" stroke="#00356b"></use><use xlink:href="#bbburst-shape-10" width="18.84677531908123" opacity="0.5744072787403811" transform="matrix(0.9284074207938962,0.37156380476955153,-0.37156380476955153,0.9284074207938962,377.6329917316854,126.89816943763424)" fill="none" stroke="#003153"></use><use xlink:href="#bbburst-shape-4" width="15.853673202041795" opacity="0.7746727765348842" transform="matrix(0.9415210116729921,-0.33695427668789935,0.33695427668789935,0.9415210116729921,229.23316475962733,-71.22562247794622)" fill="#00356b"></use><use xlink:href="#bbburst-shape-4" width="6.220662845858633" opacity="0.9000341098743478" transform="matrix(0.9206327717625699,0.3904296345780735,-0.3904296345780735,0.9206327717625699,580.7643895972393,66.17007811183692)" fill="#263067"></use><use xlink:href="#bbburst-shape-4" width="9.177826677779258" opacity="0.8856236946406354" transform="matrix(0.9210651771278711,0.3894084481394869,-0.3894084481394869,0.9210651771278711,505.85245934831164,6.08089705916592)" fill="#36454f"></use><use xlink:href="#bbburst-shape-10" width="7.358598805964617" opacity="0.865950679015011" transform="matrix(0.9797603383823515,-0.2001741225356063,0.2001741225356063,0.9797603383823515,374.0870422141432,26.221256350441536)" fill="none" stroke="#263067"></use><use xlink:href="#bbburst-shape-12" width="33.549807058444074" opacity="0.15664248565417527" transform="matrix(0.7394992566665274,-0.6731573734199555,0.6731573734199555,0.7394992566665274,221.3532282911596,480.6963335183504)" fill="none" stroke="#00356b"></use><use xlink:href="#bbburst-shape-3" width="10.1327855251313" opacity="0.7755000664134284" transform="matrix(0.954366648538037,-0.2986374058256517,0.2986374058256517,0.954366648538037,356.0351535444355,80.99846491936444)" fill="#263067"></use><use xlink:href="#bbburst-shape-1" width="8.378086046787736" opacity="0.8874310500318866" transform="matrix(0.7122200522856564,-0.7019562643941692,0.7019562643941692,0.7122200522856564,140.70283295172482,73.701671534804)" fill="#003153"></use><use xlink:href="#bbburst-shape-13" width="12.009546194110241" opacity="0.849708907395336" transform="matrix(0.9030892467528511,0.4294529222154252,-0.4294529222154252,0.9030892467528511,516.9413884416646,82.35821496089153)" fill="none" stroke="#003153"></use><use xlink:href="#bbburst-shape-12" width="17.439977090383515" opacity="0.665303785598614" transform="matrix(0.9287982303963789,-0.3705858162592778,0.3705858162592778,0.9287982303963789,240.40397218220753,182.2610800640096)" fill="none" stroke="#003153"></use><use xlink:href="#bbburst-shape-8" width="34.31655549356137" opacity="0.3483772515759225" transform="matrix(0.9932280100683694,0.11618140993991724,-0.11618140993991724,0.9932280100683694,138.9246161085371,40.59422180332621)" fill="none" stroke="#003153"></use><use xlink:href="#bbburst-shape-3" width="31.20188059858841" opacity="0.4039821425439035" transform="matrix(0.8390732996531315,0.5440183800288426,-0.5440183800288426,0.8390732996531315,819.7370719262719,-104.09645679255954)" fill="#36454f"></use><use xlink:href="#bbburst-shape-10" width="19.39090032249427" opacity="0.5702914092117106" transform="matrix(0.9279442149663486,0.37271910859316976,-0.37271910859316976,0.9279442149663486,620.4128023248161,201.1060340238883)" fill="none" stroke="#263067"></use><use xlink:href="#bbburst-shape-8" width="30.440935433806278" opacity="0.23281537491485627" transform="matrix(0.8493982447433854,0.5277524247474908,-0.5277524247474908,0.8493982447433854,875.6601366193016,-153.18576501338356)" fill="none" stroke="#003153"></use><use xlink:href="#bbburst-shape-12" width="10.437263960457381" opacity="0.8284582666486582" transform="matrix(0.9741691936027511,0.22581935753022928,-0.22581935753022928,0.9741691936027511,408.0546360364649,9.336053154795763)" fill="none" stroke="#003153"></use><use xlink:href="#bbburst-shape-13" width="15.54044513295587" opacity="0.7730826189847038" transform="matrix(0.8923771838483451,0.45129032977330336,-0.45129032977330336,0.8923771838483451,507.5716937678851,-38.36540732557427)" fill="none" stroke="#263067"></use><use xlink:href="#bbburst-shape-10" width="24.964707113899856" opacity="0.4378473808732015" transform="matrix(0.9070270912346109,-0.4210722690542336,0.4210722690542336,0.9070270912346109,467.91287088676177,-9.090184042452336)" fill="none" stroke="#003153"></use><use xlink:href="#bbburst-shape-8" width="42.991690251201405" opacity="0.12802893873851318" transform="matrix(0.9999762715758759,0.006888852241855676,-0.006888852241855676,0.9999762715758759,641.7981089993501,-293.5453708604455)" fill="none" stroke="#263067"></use><use xlink:href="#bbburst-shape-8" width="16.683364431750352" opacity="0.6892184772602847" transform="matrix(0.8683584062879759,0.4959371716548443,-0.4959371716548443,0.8683584062879759,490.8059368340647,-48.913983527137304)" fill="none" stroke="#003153"></use><use xlink:href="#bbburst-shape-3" width="9.159822860860045" opacity="0.8130202956893804" transform="matrix(0.8940331043568294,-0.44800090213535354,0.44800090213535354,0.8940331043568294,300.33128190445916,35.44812569313956)" fill="#003153"></use><use xlink:href="#bbburst-shape-10" width="13.403366141403945" opacity="0.7348355772404114" transform="matrix(0.8630445704201228,-0.5051277753879166,0.5051277753879166,0.8630445704201228,72.84796750146879,56.88101330550296)" fill="none" stroke="#003153"></use><use xlink:href="#bbburst-shape-3" width="18.50192437945091" opacity="0.6669338720252149" transform="matrix(0.9985487887191261,-0.05385458706151232,0.05385458706151232,0.9985487887191261,405.68478950615463,146.44122248551145)" fill="#00356b"></use><use xlink:href="#bbburst-shape-1" width="19.31298429436145" opacity="0.6281345708147391" transform="matrix(0.9962771053334318,-0.08620863871119858,0.08620863871119858,0.9962771053334318,457.065355697704,135.6419017515978)" fill="#00356b"></use><use xlink:href="#bbburst-shape-4" width="29.8315338164589" opacity="0.2532336065133758" transform="matrix(0.830465738314291,0.5570697061285056,-0.5570697061285056,0.830465738314291,327.58873671133483,-121.93750905656987)" fill="#003153"></use><use xlink:href="#bbburst-shape-10" width="30.16653071342166" opacity="0.41610498364588133" transform="matrix(0.9928055937555859,-0.1197374336104571,0.1197374336104571,0.9928055937555859,104.70839747009448,-117.86854389506493)" fill="none" stroke="#003153"></use><use xlink:href="#bbburst-shape-8" width="45.37967580573515" opacity="0.025817122637792234" transform="matrix(0.9290820200547113,0.36987376226363655,-0.36987376226363655,0.9290820200547113,880.9299216815114,278.46995778033715)" fill="none" stroke="#263067"></use><use xlink:href="#bbburst-shape-8" width="28.35920452575404" opacity="0.37776893665780276" transform="matrix(0.8538349429909871,-0.5205438407354158,0.5205438407354158,0.8538349429909871,274.5875930999238,-197.58010937249054)" fill="none" stroke="#00356b"></use><use xlink:href="#bbburst-shape-4" width="36.49968460724544" opacity="0.3056400780979972" transform="matrix(0.9791595134146913,-0.2030927061455061,0.2030927061455061,0.9791595134146913,591.2580233869845,-103.35779938669924)" fill="#003153"></use><use xlink:href="#bbburst-shape-4" width="12.39054736208062" opacity="0.7582323586664653" transform="matrix(0.7588319227167528,0.651286506129212,-0.651286506129212,0.7588319227167528,720.1005080830435,180.20577124962188)" fill="#003153"></use><use xlink:href="#bbburst-shape-12" width="23.037742758901114" opacity="0.6060684651217056" transform="matrix(0.7562309058778276,-0.6543048349165702,0.6543048349165702,0.7562309058778276,240.2594603253733,-33.42669527585929)" fill="none" stroke="#263067"></use><use xlink:href="#bbburst-shape-3" width="8.103760716255564" opacity="0.9517587978183363" transform="matrix(0.9988464525345772,0.048018374182085884,-0.048018374182085884,0.9988464525345772,436.75208741438206,-1.661703809742562)" fill="#36454f"></use><use xlink:href="#bbburst-shape-12" width="24.332078552192925" opacity="0.5399707441257334" transform="matrix(0.797760921015999,0.6029738907280355,-0.6029738907280355,0.797760921015999,527.5833835958178,252.55981727991917)" fill="none" stroke="#003153"></use><use xlink:href="#bbburst-shape-1" width="23.825883500865192" opacity="0.5777529658274754" transform="matrix(0.7273291530657914,0.6862887898695408,-0.6862887898695408,0.7273291530657914,850.7734420547508,57.32490445331604)" fill="#263067"></use><use xlink:href="#bbburst-shape-4" width="5.156189010899777" opacity="0.9202860646245524" transform="matrix(0.9999860330600628,-0.005285232709994705,0.005285232709994705,0.9999860330600628,366.5199040869948,-21.377085125616475)" fill="#263067"></use><use xlink:href="#bbburst-shape-3" width="23.07186012653564" opacity="0.05919911057752647" transform="matrix(0.9130435938490414,-0.4078619812279965,0.4078619812279965,0.9130435938490414,438.806249530968,-326.60546621918456)" fill="#00356b"></use><use xlink:href="#bbburst-shape-8" width="19.265857511731074" opacity="0.4486290793506291" transform="matrix(0.9860153031315256,0.16665479888213713,-0.16665479888213713,0.9860153031315256,468.9774031685753,251.82400980954554)" fill="none" stroke="#263067"></use><use xlink:href="#bbburst-shape-8" width="20.12952500481983" opacity="0.6332140655262614" transform="matrix(0.959146777970131,-0.2829089222868662,0.2829089222868662,0.959146777970131,301.5156362802126,-144.0615109123101)" fill="none" stroke="#003153"></use><use xlink:href="#bbburst-shape-10" width="6.002550535140914" opacity="0.9530085814041216" transform="matrix(0.77157433685694,0.6361391692890583,-0.6361391692890583,0.77157433685694,631.2322318390248,86.29464420704574)" fill="none" stroke="#00356b"></use><use xlink:href="#bbburst-shape-4" width="25.570900914028915" opacity="0.3577777952576269" transform="matrix(0.9813375139291591,-0.19229322337341326,0.19229322337341326,0.9813375139291591,589.7237980164045,84.62946578308765)" fill="#003153"></use><use xlink:href="#bbburst-shape-10" width="34.23012568342686" opacity="0.20837483066950124" transform="matrix(0.7579143248544502,-0.6523541033675061,0.6523541033675061,0.7579143248544502,121.16834455342683,-248.19802970750953)" fill="none" stroke="#263067"></use><use xlink:href="#bbburst-shape-3" width="26.689123850681355" opacity="0.4975630832143909" transform="matrix(0.8143668902347582,-0.5803503838969776,0.5803503838969776,0.8143668902347582,-7.687254612457593,237.06518906589503)" fill="#00356b"></use><use xlink:href="#bbburst-shape-8" width="34.31478675376908" opacity="0.22468064608200877" transform="matrix(0.9990658494302939,-0.043213753622260334,0.043213753622260334,0.9990658494302939,175.08397246599307,293.4175124785822)" fill="none" stroke="#003153"></use><use xlink:href="#bbburst-shape-1" width="8.94972255242142" opacity="0.780029308195288" transform="matrix(0.848782310879766,0.528742459745389,-0.528742459745389,0.848782310879766,510.46874935333113,76.72898557939101)" fill="#263067"></use><use xlink:href="#bbburst-shape-8" width="8.48932440341648" opacity="0.8686580106961678" transform="matrix(0.9845079309336613,-0.17534005226622107,0.17534005226622107,0.9845079309336613,349.26990733431296,61.135424287892306)" fill="none" stroke="#003153"></use><use xlink:href="#bbburst-shape-1" width="16.648142364593735" opacity="0.6598077503194157" transform="matrix(0.8981589891621573,0.43967082025898846,-0.43967082025898846,0.8981589891621573,721.467954323854,36.50671689829937)" fill="#00356b"></use></svg>